<?xml version="1.0" encoding="utf-8"?>
<!-- Generator: Adobe Illustrator 25.2.3, SVG Export Plug-In . SVG Version: 6.00 Build 0)  -->
<svg version="1.1" id="Layer_1" xmlns="http://www.w3.org/2000/svg" xmlns:xlink="http://www.w3.org/1999/xlink" x="0px" y="0px"
	 viewBox="0 0 1920 616.39" style="enable-background:new 0 0 1920 616.39;" xml:space="preserve">
<style type="text/css">
	.st0{fill:#FFFFFF;}
</style>
<g id="text_4_">
	<g>
		<path class="st0" d="M901.4,348.28c-3.61,0-5.59,1.97-7.23,3.61c-16.43,16.43-31.22,22.02-53.56,22.02
			c-38.78,0-68.02-31.22-68.02-71.96c0-40.42,29.57-71.96,68.02-71.96c20.37,0,34.83,7.23,51.59,20.37
			c1.97,1.97,5.59,3.61,7.23,3.61c5.59,0,11.17-5.59,11.17-11.17c0-1.97-1.97-5.59-3.61-9.2c-14.79-12.82-33.19-25.63-66.38-25.63
			c-51.59,0-90.37,40.42-90.37,93.98v1.97c0,53.56,38.78,93.98,90.37,93.98c27.6,0,47.98-7.23,68.02-27.6
			c1.97-1.97,3.61-5.59,3.61-7.23C912.24,353.87,906.65,348.28,901.4,348.28z"/>
	</g>
	<g>
		<path class="st0" d="M997.02,208.3c-5.59,0-11.17,5.59-11.17,11.17V379.5c0,5.59,5.59,11.17,11.17,11.17
			c5.59,0,11.17-5.59,11.17-11.17V219.14C1008.19,213.89,1002.61,208.3,997.02,208.3z"/>
	</g>
	<g>
		<path class="st0" d="M1170.19,291.11l62.76-62.76c3.61-3.61,3.61-5.59,3.61-7.23c0-5.59-5.59-11.17-11.17-11.17
			c-3.61,0-5.59,1.97-7.23,3.61l-101.54,103.51v-95.62c0-5.59-5.59-11.17-11.17-11.17c-5.59,0-11.17,3.61-11.17,11.17V381.8
			c0,5.59,5.59,11.17,11.17,11.17c5.59,0,11.17-5.59,11.17-11.17V345l38.78-38.78l66.38,81.17c1.97,3.61,5.59,3.61,9.2,3.61
			c5.59,0,11.17-5.59,11.17-11.17c0-3.61-1.97-5.59-3.61-7.23L1170.19,291.11z"/>
	</g>
	<g>
		<path class="st0" d="M1427.82,370.3h-92.01V219.14c0-5.59-5.59-11.17-11.17-11.17s-11.17,5.59-11.17,11.17V379.5
			c0,5.59,5.59,11.17,11.17,11.17h103.18c5.59,0,11.17-5.59,11.17-11.17C1438.99,374.24,1433.4,370.3,1427.82,370.3z"/>
	</g>
	<g>
		<path class="st0" d="M1628.6,208.3c-5.59,0-11.17,5.59-11.17,11.17v95.62c0,36.8-18.4,57.18-53.56,57.18
			c-33.19,0-53.56-22.02-53.56-58.82v-93.98c0-5.59-5.59-11.17-11.17-11.17c-5.59,0-11.17,5.59-11.17,11.17v95.62
			c0,47.98,29.57,79.19,75.58,79.19s75.58-31.22,75.58-81.17v-93.98C1639.77,213.89,1634.18,208.3,1628.6,208.3z"/>
	</g>
</g>
<g>
	<path class="st0" d="M315.55,591.76c-156.36,0-283.57-127.21-283.57-283.57S159.19,24.63,315.55,24.63
		c72.48,0,141.47,27.34,194.24,76.97c7.93,7.46,8.31,19.94,0.85,27.87c-7.46,7.93-19.94,8.31-27.87,0.85
		c-45.43-42.73-104.82-66.26-167.22-66.26c-134.62,0-244.14,109.52-244.14,244.13s109.52,244.14,244.14,244.14
		c65.21,0,126.52-25.39,172.63-71.5c7.7-7.7,20.18-7.7,27.88,0c7.7,7.7,7.7,20.18,0,27.88C462.51,562.27,391.3,591.76,315.55,591.76
		z"/>
</g>
<g>
	<path class="st0" d="M315.55,514.48c-113.75,0-206.29-92.54-206.29-206.29c0-90.52,57.96-169.6,144.22-196.78
		c10.39-3.27,21.46,2.49,24.73,12.88c3.27,10.39-2.49,21.46-12.88,24.73c-69.77,21.99-116.64,85.95-116.64,159.17
		c0,92,74.85,166.86,166.86,166.86c15.81,0,31.45-2.21,46.48-6.56c10.45-3.03,21.39,3,24.42,13.46c3.03,10.46-3,21.39-13.46,24.42
		C354.4,511.75,335.07,514.48,315.55,514.48z"/>
</g>
<g>
	<path class="st0" d="M315.55,437.2c-71.13,0-129.01-57.87-129.01-129.01c0-35.34,14.74-69.54,40.45-93.81
		c7.92-7.47,20.4-7.12,27.87,0.8c7.48,7.92,7.12,20.39-0.8,27.87c-18.11,17.1-28.09,40.24-28.09,65.14
		c0,49.39,40.18,89.57,89.57,89.57c24.19,0,46.86-9.5,63.84-26.74c7.64-7.76,20.12-7.86,27.88-0.22c7.76,7.64,7.86,20.12,0.22,27.88
		C383.05,423.53,350.4,437.2,315.55,437.2z"/>
</g>
<g>
	<path class="st0" d="M1887.22,219.47v0.96c0,0.12-0.01,0.23-0.01,0.35v158.98c-0.16,5.5-5.67,10.91-11.17,10.91
		c-5.58,0-11.17-5.58-11.17-11.17V252.33l-53.57,79.19c-0.37,0.68-0.8,1.3-1.27,1.86c-0.15,0.19-0.32,0.37-0.49,0.54
		c-2.02,2.09-4.73,3.19-7.43,3.19h-0.01c-0.25,0-0.49-0.01-0.74-0.03s-0.5-0.05-0.75-0.09c-3.09-0.46-6.01-2.35-7.71-5.47
		l-53.56-79.19V379.5c0,5.59-5.59,11.17-11.17,11.17c-5.59,0-11.18-5.58-11.18-11.17V219.47c0-5.59,5.59-11.17,11.18-11.17h1.64
		c5.59,0,7.23,3.61,9.2,5.58l63.1,92.06l63.09-92.06c1.97-1.97,3.61-5.58,9.2-5.58h1.64
		C1881.63,208.3,1887.22,213.88,1887.22,219.47z"/>
</g>
</svg>
