<svg xmlns="http://www.w3.org/2000/svg" xmlns:xlink="http://www.w3.org/1999/xlink" version="1.1" id="Layer_1" x="0px" y="0px" style="enable-background:new 0 0 1200 1200;" xml:space="preserve" viewBox="13 461.5 1174 277">
<style type="text/css">
	.st0{fill:#FFFFFF;}
</style>
<g>
	<g>
		<g>
			<path class="st0" d="M96.5,461.5c23.3,0,40.2,7.9,55.9,21.5c2.1,1.9,2.1,4.6,0.2,6.5l-10.2,10.4c-1.6,2.1-3.7,2.1-5.8,0     c-10.9-9.5-25.7-15.5-40-15.5c-33.1,0-58,27.7-58,60.1s25.2,59.9,58.3,59.9c16.9,0,28.7-6.7,39.8-15.3c2.1-1.6,4.2-1.4,5.6-0.2     l10.6,10.4c1.9,1.6,1.4,4.6-0.2,6.2C136.9,620.8,117,628,96.5,628C50.2,628,13,591.2,13,545S50.2,461.5,96.5,461.5z"/>
			<path class="st0" d="M182,465.7c0-2.3,2.1-4.2,4.4-4.2h5.8l100.3,116.1h0.2V468.2c0-2.3,1.9-4.4,4.4-4.4h14.8     c2.3,0,4.4,2.1,4.4,4.4v155.6c0,2.3-2.1,4.2-4.4,4.2h-6L205.6,508.7h-0.2v112.6c0,2.3-1.9,4.4-4.4,4.4h-14.6     c-2.3,0-4.4-2.1-4.4-4.4L182,465.7L182,465.7z"/>
			<path class="st0" d="M483.4,461.5c22.2,0,40.5,8.1,56.2,21.5c1.8,1.9,2.1,4.6,0.2,6.5c-3.5,3.7-6.9,7.2-10.4,10.9     c-1.9,2.1-3.7,1.9-6-0.2c-10.9-9.5-25.2-15.7-39.3-15.7c-32.8,0-58,27.7-58,60.1c0,32.1,25.2,59.9,58,59.9     c19.2,0,32.4-6.9,34.7-7.9v-25.9h-22.7c-2.6,0-4.4-1.8-4.4-4.2v-13.4c0-2.6,1.9-4.4,4.4-4.4h42.1c2.3,0,4.2,2.1,4.2,4.4     c0,18.5,0.2,37.4,0.2,55.9c0,1.2-0.9,3-1.8,3.7c0,0-23.8,15.3-57.3,15.3c-46,0-83.2-36.8-83.2-83S437.4,461.5,483.4,461.5z"/>
			<path class="st0" d="M578.4,468.2c0-2.3,1.9-4.4,4.4-4.4h62.9c27.7,0,50.4,22,50.4,49.5c0,21.3-14.1,38.8-34.2,46.9l31.7,58.7     c1.6,3,0,6.7-3.9,6.7h-18c-1.9,0-3.2-1.2-3.7-2.1l-30.7-61.3h-34.9v59c0,2.3-2.1,4.4-4.4,4.4h-15c-2.5,0-4.4-2.1-4.4-4.4v-153     L578.4,468.2L578.4,468.2z M643.8,542.4c15,0,28.2-12.7,28.2-28.7c0-15-13.2-27.5-28.2-27.5h-41.2v56.2H643.8z"/>
			<path class="st0" d="M911.9,468.2c0-2.3,2.1-4.4,4.4-4.4h15.5c2.5,0,4.4,2.1,4.4,4.4v95.5c0,23.1,14.8,41.2,38.4,41.2     c23.8,0,38.8-17.8,38.8-40.7v-95.9c0-2.3,1.9-4.4,4.4-4.4h15.5c2.3,0,4.4,2.1,4.4,4.4v97.1c0,35.1-26.6,62.7-63.1,62.7     c-36.3,0-62.7-27.5-62.7-62.7L911.9,468.2L911.9,468.2z"/>
			<path class="st0" d="M1078.1,468.2c0-2.3,1.9-4.4,4.4-4.4h52.7c28.4,0,51.8,23.1,51.8,51.1c0,28.7-23.4,52-51.6,52h-33.5v54.3     c0,2.3-2.1,4.4-4.4,4.4h-15c-2.5,0-4.4-2.1-4.4-4.4V468.2z M1133.8,544.3c16,0,29.4-12.9,29.4-29.6c0-15.7-13.4-27.7-29.4-27.7     h-31.9v57.3H1133.8z"/>
			<g>
				<circle class="st0" cx="848.1" cy="595.1" r="12"/>
				<path class="st0" d="M799.4,627.9c-38.1,0.8-73.1-25-82.5-63.5c-10.8-44.6,16.6-89.6,61.2-100.4c21.6-5.2,43.9-1.8,62.9,9.8      c19,11.6,32.3,29.8,37.6,51.4c3.1,12.9,3.1,26.4,0,39.2c-1.6,6.4-8,10.4-14.5,8.8c-6.4-1.6-10.4-8-8.8-14.5      c2.2-9.2,2.2-18.6,0-27.9c-3.7-15.4-13.2-28.3-26.7-36.6c-13.5-8.2-29.4-10.7-44.8-7c-31.7,7.7-51.2,39.8-43.5,71.5      c7.7,31.7,39.8,51.2,71.5,43.5c6.4-1.6,12.9,2.4,14.5,8.8c1.6,6.4-2.4,12.9-8.8,14.5C811.4,627,805.3,627.8,799.4,627.9z"/>
			</g>
		</g>
	</g>
	<g>
		<path class="st0" d="M402.1,737.6L402.1,737.6L402.1,737.6L402.1,737.6z"/>
		<path class="st0" d="M431,684.6h-8.3l-20.6,53h8.3l5-13.1h22.3l5,13.2h8.7L431,684.6z M418.4,716.6l4.1-10.7    c0.3-0.8,0.6-1.9,1.1-3.2s0.9-2.6,1.4-4.1s1-2.9,1.4-4.2c0.1-0.3,0.1-0.5,0.2-0.7c0,0.1,0,0.2,0.1,0.2c0.4,1.4,0.9,2.9,1.5,4.6    c0.6,1.7,1.1,3.2,1.5,4.6c0.5,1.4,0.7,2.2,0.9,2.6l4.1,10.9L418.4,716.6L418.4,716.6z"/>
		<path class="st0" d="M503.5,738.5c-3.7,0-7.1-0.7-10.2-2s-5.8-3.2-8-5.6c-2.3-2.5-4-5.3-5.3-8.7c-1.2-3.3-1.9-7-1.9-11    c0-3.8,0.7-7.3,2-10.6s3.2-6.1,5.6-8.6s5.1-4.4,8.3-5.8c3.1-1.4,6.5-2,10.2-2c2.6,0,5.1,0.4,7.5,1.2c2.5,0.8,4.7,1.9,6.7,3.3    c2,1.4,3.6,3,4.9,4.7l-5.5,5.7c-1.5-1.5-2.9-2.7-4.4-3.7s-3-1.7-4.5-2.2s-3.1-0.8-4.7-0.8c-2.5,0-4.8,0.5-6.9,1.4s-4,2.2-5.6,3.9    s-2.8,3.7-3.8,6c-0.9,2.3-1.4,4.8-1.4,7.5c0,2.9,0.4,5.5,1.3,7.9c0.9,2.3,2.1,4.4,3.8,6c1.6,1.7,3.5,2.9,5.8,3.8    c2.2,0.9,4.7,1.3,7.5,1.3c1.7,0,3.3-0.2,4.9-0.7s3.1-1.1,4.5-2s2.7-1.9,3.9-3l4.1,6.7c-1.2,1.4-2.7,2.6-4.7,3.7    c-2,1.1-4.2,2-6.7,2.6C508.4,738.2,505.9,738.5,503.5,738.5z"/>
		<path class="st0" d="M531.4,737.7v-7.6h8.6v-37.9h-8.6v-7.6h25.3v7.6h-8.6v37.9h8.6v7.6H531.4z"/>
		<polygon class="st0" points="604.8,737.8 604.8,737.7 585.9,712.5 577.9,720.2 577.9,737.7 569.7,737.7 569.7,684.6 577.9,684.6     577.9,710.5 603.8,684.6 614.6,684.6 591.7,706.8 615.1,737.8   "/>
		<path class="st0" d="M625.2,737.7v-53.1h8.2v45.2h24.9v7.9L625.2,737.7L625.2,737.7z"/>
		<path class="st0" d="M689.7,738.2c-4.1,0-7.8-0.9-11-2.7s-5.8-4.3-7.6-7.4c-1.8-3.2-2.8-6.7-2.8-10.7v-32.8h8.2v32.1    c0,2.6,0.6,4.9,1.8,6.9s2.8,3.7,4.8,4.9s4.2,1.8,6.6,1.8c2.5,0,4.8-0.6,6.9-1.8c2-1.2,3.7-2.8,4.9-4.9c1.2-2,1.8-4.4,1.8-6.9    v-32.1h7.8v32.8c0,4-0.9,7.6-2.8,10.7c-1.8,3.2-4.4,5.6-7.6,7.4C697.5,737.3,693.8,738.2,689.7,738.2z"/>
		<path class="st0" d="M775.8,684.6v53.1h-8.2v-21.8c0-4.5,0.1-8.6,0.3-12.3c0.1-1.7,0.2-3.4,0.4-5.1l-15.5,23.9h-5l-15.2-24.1    c0.2,1.6,0.3,3.2,0.5,4.9c0.3,3.5,0.3,7.8,0.3,12.7v21.8h-8.1v-53.1h8l17.3,28.3l17.7-28.3L775.8,684.6L775.8,684.6z"/>
		<path class="st0" d="M833.5,738.5c-3.7,0-7.1-0.7-10.2-2s-5.8-3.2-8-5.6c-2.3-2.5-4-5.3-5.3-8.7c-1.2-3.3-1.9-7-1.9-11    c0-3.8,0.7-7.3,2-10.6s3.2-6.1,5.6-8.6c2.4-2.5,5.1-4.4,8.3-5.8s6.5-2,10.2-2c2.6,0,5.1,0.4,7.5,1.2c2.5,0.8,4.7,1.9,6.7,3.3    c2,1.4,3.6,3,4.9,4.7l-5.5,5.7c-1.5-1.5-2.9-2.7-4.4-3.7s-3-1.7-4.5-2.2s-3.1-0.8-4.7-0.8c-2.5,0-4.8,0.5-6.9,1.4    c-2.1,0.9-4,2.2-5.6,3.9s-2.8,3.7-3.8,6c-0.9,2.3-1.4,4.8-1.4,7.5c0,2.9,0.4,5.5,1.3,7.9c0.9,2.3,2.1,4.4,3.8,6    c1.6,1.7,3.5,2.9,5.8,3.8c2.2,0.9,4.7,1.3,7.5,1.3c1.7,0,3.3-0.2,4.9-0.7c1.6-0.5,3.1-1.1,4.5-2s2.7-1.9,3.9-3l4.1,6.7    c-1.2,1.4-2.7,2.6-4.7,3.7c-2,1.1-4.2,2-6.7,2.6C838.4,738.2,835.9,738.5,833.5,738.5z"/>
		<path class="st0" d="M885.6,738.5c-3.7,0-7.2-0.7-10.4-2c-3.2-1.4-5.9-3.3-8.3-5.7c-2.4-2.5-4.2-5.3-5.5-8.6s-1.9-6.9-1.9-10.9    s0.6-7.6,1.9-10.9c1.3-3.3,3.1-6.2,5.5-8.6c2.4-2.5,5.1-4.4,8.3-5.7c3.2-1.4,6.6-2,10.4-2c3.7,0,7.2,0.7,10.3,2    c3.2,1.4,5.9,3.3,8.3,5.8c2.3,2.5,4.2,5.4,5.5,8.7s1.9,6.9,1.9,10.8s-0.6,7.5-1.9,10.8c-1.3,3.3-3.1,6.2-5.5,8.7s-5.1,4.4-8.3,5.8    C892.8,737.8,889.4,738.5,885.6,738.5z M885.6,730.5c2.6,0,4.9-0.5,7.1-1.4s4-2.3,5.6-4.1c1.6-1.7,2.8-3.8,3.7-6.1    s1.3-4.9,1.3-7.7s-0.4-5.3-1.3-7.7c-0.9-2.4-2.1-4.4-3.7-6.1c-1.6-1.7-3.4-3.1-5.6-4.1s-4.5-1.4-7.1-1.4s-4.9,0.5-7.1,1.4    s-4,2.3-5.6,4s-2.8,3.8-3.7,6.1c-0.9,2.4-1.3,4.9-1.3,7.8c0,2.8,0.4,5.4,1.3,7.7c0.9,2.4,2.1,4.4,3.7,6.1c1.6,1.7,3.5,3.1,5.6,4    S883.1,730.5,885.6,730.5z"/>
		<path class="st0" d="M973.3,684.6v53.1h-8.2v-21.8c0-4.5,0.1-8.6,0.3-12.3c0.1-1.7,0.2-3.4,0.4-5.1l-15.5,23.9h-5L930,698.3    c0.2,1.6,0.3,3.2,0.5,4.9c0.2,3.6,0.3,7.8,0.3,12.7v21.8h-8.1v-53.1h8l17.3,28.3l17.7-28.3L973.3,684.6L973.3,684.6z"/>
		<path class="st0" d="M988.2,737.7v-53.1h21.6c2.9,0,5.5,0.7,7.8,2.2c2.4,1.4,4.2,3.4,5.6,5.9c1.4,2.5,2.1,5.2,2.1,8.3    s-0.7,5.8-2.1,8.3s-3.3,4.5-5.6,6s-5,2.2-7.8,2.2h-13.4v20.3h-8.2L988.2,737.7L988.2,737.7z M996.4,709.5h13.3    c1.4,0,2.6-0.4,3.7-1.2c1.1-0.8,2-1.8,2.7-3.1s1-2.7,1-4.3s-0.3-3-1-4.2c-0.7-1.3-1.6-2.3-2.7-3c-1.1-0.8-2.4-1.1-3.7-1.1h-13.3    V709.5z"/>
		<path class="st0" d="M1025.9,737.6L1025.9,737.6L1025.9,737.6L1025.9,737.6z"/>
		<path class="st0" d="M1054.8,684.6h-8.3l-20.6,53h8.3l5-13.1h22.3l5,13.2h8.7L1054.8,684.6z M1042.2,716.6l4.1-10.7    c0.3-0.8,0.6-1.9,1.1-3.2s0.9-2.6,1.4-4.1s1-2.9,1.4-4.2c0.1-0.3,0.2-0.5,0.2-0.7c0,0.1,0.1,0.2,0.1,0.2c0.4,1.4,0.9,2.9,1.5,4.6    s1.1,3.2,1.5,4.6c0.5,1.4,0.7,2.2,0.9,2.6l4.1,10.9L1042.2,716.6L1042.2,716.6z"/>
		<path class="st0" d="M1129.9,684.7v53.1h-7.5l-30.9-40.5c0.2,2,0.3,3.8,0.4,5.3c0.2,2.1,0.3,4,0.5,5.5c0.1,1.5,0.2,2.7,0.3,3.6    c0.1,0.9,0.1,1.7,0.1,2.3v23.7h-8.3v-53.1h7.4l30.9,41.4c0-0.4-0.1-0.8-0.1-1.3c-0.2-1.5-0.3-3.1-0.4-4.8s-0.2-3.5-0.3-5.4    s-0.1-3.9-0.2-6s-0.1-4.2-0.1-6.4v-17.4L1129.9,684.7L1129.9,684.7z"/>
		<polygon class="st0" points="1186.5,684.6 1167.1,714.1 1167.1,737.7 1158.9,737.7 1158.9,714.2 1137.9,684.6 1147.8,684.6     1163.1,706.6 1177.1,684.6   "/>
	</g>
</g>
</svg>